<svg width="32" height="32" viewBox="0 0 32 32" fill="none" xmlns="http://www.w3.org/2000/svg">
  <rect width="32" height="32" rx="7" fill="#fff"/>
  <g stroke="rgba(209,153,71,0.35)" stroke-width="1">
    <line x1="0" y1="0" x2="7" y2="7"/>
    <line x1="7" y1="0" x2="14" y2="7"/>
    <line x1="14" y1="0" x2="21" y2="7"/>
    <line x1="21" y1="0" x2="28" y2="7"/>
    <line x1="28" y1="0" x2="35" y2="7"/>
    <line x1="0" y1="7" x2="7" y2="14"/>
    <line x1="7" y1="7" x2="14" y2="14"/>
    <line x1="14" y1="7" x2="21" y2="14"/>
    <line x1="21" y1="7" x2="28" y2="14"/>
    <line x1="28" y1="7" x2="35" y2="14"/>
    <line x1="0" y1="14" x2="7" y2="21"/>
    <line x1="7" y1="14" x2="14" y2="21"/>
    <line x1="14" y1="14" x2="21" y2="21"/>
    <line x1="21" y1="14" x2="28" y2="21"/>
    <line x1="28" y1="14" x2="35" y2="21"/>
    <line x1="0" y1="21" x2="7" y2="28"/>
    <line x1="7" y1="21" x2="14" y2="28"/>
    <line x1="14" y1="21" x2="21" y2="28"/>
    <line x1="21" y1="21" x2="28" y2="28"/>
    <line x1="28" y1="21" x2="35" y2="28"/>
    <line x1="0" y1="28" x2="7" y2="35"/>
    <line x1="7" y1="28" x2="14" y2="35"/>
    <line x1="14" y1="28" x2="21" y2="35"/>
    <line x1="21" y1="28" x2="28" y2="35"/>
    <line x1="28" y1="28" x2="35" y2="35"/>
  </g>
</svg>
